<svg width="188" height="20" viewBox="0 0 188 20" fill="none" xmlns="http://www.w3.org/2000/svg">
<path fill-rule="evenodd" clip-rule="evenodd" d="M8.13713 5.60446e-05C10.663 -0.0109032 12.8275 1.58644 13.6097 3.88672C13.726 4.24258 13.8139 4.60727 13.8653 4.99142L15.6479 18.2971L15.9088 19.9862L10.3504 20H10.122L8.63242 8.87989C8.58684 8.53964 8.30009 8.29267 7.95436 8.29144C7.60869 8.29267 7.32195 8.53964 7.27631 8.87989L5.78675 20H5.55841L0 19.9862L0.260899 18.2971L2.04345 4.99142C2.09483 4.60727 2.1827 4.24258 2.29913 3.88672C3.0813 1.58644 5.24575 -0.0109032 7.77166 5.60446e-05C7.83278 0.000184977 7.8937 0.00128103 7.95436 0.00340842C8.01509 0.00128103 8.07601 0.000184977 8.13713 5.60446e-05Z" fill="#222226"/>
<path d="M27.2665 18.013H32.9368V6.0239H38.5803V1.98682H21.623V6.0239H27.2665V18.013ZM39.8472 1.98682V18.013H45.5212V12.8083H46.9674V13.7775C46.9674 16.1013 48.8637 18.0053 51.1914 18.013H58.0903V13.9339H53.954C53.2404 13.9339 52.6375 13.4989 52.6375 12.9876V12.7778C60.1508 12.1444 59.9028 1.98682 51.8896 1.98682H39.8472ZM45.5212 6.0659H51.0273C52.9199 6.0659 52.9199 8.72929 51.0273 8.72929H45.5212V6.0659ZM73.1281 1.98682H64.0466L58.8267 18.013H64.7105L65.4699 16.0441H71.7048L72.4604 18.013H78.3443L73.1281 1.98682ZM67.0382 11.965L68.5874 5.48201L70.1327 11.965H67.0382ZM90.8218 1.98682V9.21004L85.1516 4.71887L81.7021 1.98682H79.4776V18.013H85.1516V10.7898L90.8218 15.2809L94.2712 18.013H96.4958V1.98682H90.8218ZM113.655 1.98682H102.853C102.551 1.98682 102.254 2.01739 101.968 2.07462C100.086 2.44091 98.6135 3.96341 98.3579 5.93611C98.2435 6.80615 98.3846 7.65319 98.7242 8.40111C99.7469 10.66 101.842 10.908 104.036 11.488L107.745 12.4687C108.008 12.5374 108.176 12.7854 108.138 13.0525C108.103 13.3235 107.878 13.5218 107.607 13.5218H98.709V18.013H110.095C110.4 18.013 110.694 17.9824 110.984 17.9291C112.862 17.5589 114.334 16.0364 114.59 14.0637C114.705 13.1937 114.563 12.3466 114.228 11.5987C114.159 11.4499 113.655 10.5074 113.655 10.6371C112.396 8.99256 110.458 8.6186 108.328 8.05771L104.62 7.07698C104.356 7.0083 104.188 6.75647 104.227 6.48942C104.261 6.22226 104.486 6.0239 104.757 6.0239H113.655V1.98682ZM116.086 13.5943C116.086 13.9378 116.082 14.2697 116.086 14.594V13.7775C116.086 16.1051 117.994 18.013 120.325 18.013H132.456V13.9339H123.076C122.363 13.9339 121.76 13.4989 121.76 12.9876V7.01219C121.76 6.50087 122.363 6.0659 123.076 6.0659H132.456V1.98682H120.325C117.994 1.98682 116.086 3.89473 116.086 6.22227V5.40578C116.082 5.72628 116.086 6.06202 116.086 6.40542V13.5943ZM134.241 18.013H148.94V13.9339H139.915V12.0413H147.337V7.95847H139.915V6.0659H148.94V1.98682H134.241V18.013ZM162.161 1.98682V9.21004L156.491 4.71887L153.041 1.98682H150.817V18.013H156.491V10.7898L162.161 15.2809L165.611 18.013H167.835V1.98682H162.161ZM170.14 1.98682V18.013H182.934C185.258 18.0053 187.158 16.1013 187.158 13.7775C187.158 19.5622 187.158 7.21056 187.158 6.40542C187.158 6.06202 187.162 5.73006 187.158 5.40578V6.22227C187.158 3.89473 185.25 1.98682 182.923 1.98682H170.14ZM175.814 13.9339V6.0659H180.168C180.881 6.0659 181.484 6.50087 181.484 7.01219V12.9876C181.484 13.4989 180.881 13.9339 180.168 13.9339H175.814Z" fill="#222226"/>
</svg>
