<svg width="60" height="60" viewBox="0 0 60 60" fill="none" xmlns="http://www.w3.org/2000/svg">
<path d="M52.6148 31.9899L35.7398 48.8649C35.2115 49.3932 34.4949 49.6901 33.7477 49.6901C33.0004 49.6901 32.2838 49.3932 31.7555 48.8649C31.2271 48.3365 30.9303 47.6199 30.9303 46.8727C30.9303 46.1255 31.2271 45.4089 31.7555 44.8805L43.8281 32.8125H9.375C8.62908 32.8125 7.91371 32.5162 7.38626 31.9888C6.85882 31.4613 6.5625 30.746 6.5625 30C6.5625 29.2541 6.85882 28.5387 7.38626 28.0113C7.91371 27.4839 8.62908 27.1875 9.375 27.1875H43.8281L31.7602 15.1125C31.2318 14.5842 30.935 13.8676 30.935 13.1204C30.935 12.3731 31.2318 11.6565 31.7602 11.1282C32.2885 10.5998 33.0051 10.303 33.7523 10.303C34.4996 10.303 35.2162 10.5998 35.7445 11.1282L52.6195 28.0032C52.8818 28.2648 53.0898 28.5757 53.2315 28.9179C53.3733 29.2602 53.446 29.6271 53.4456 29.9975C53.4451 30.3679 53.3715 30.7347 53.229 31.0766C53.0864 31.4185 52.8777 31.7289 52.6148 31.9899Z" fill="#222226"/>
</svg>
