<svg width="15" height="16" viewBox="0 0 15 16" fill="none" xmlns="http://www.w3.org/2000/svg">
              <path
                d="M12.685 11.31L9.87246 14.1225C9.74037 14.2546 9.56122 14.3288 9.37441 14.3288C9.18761 14.3288 9.00846 14.2546 8.87637 14.1225C8.74428 13.9904 8.67007 13.8112 8.67007 13.6244C8.67007 13.4376 8.74428 13.2585 8.87637 13.1264L10.4883 11.5156H3.75C3.56352 11.5156 3.38468 11.4415 3.25282 11.3097C3.12095 11.1778 3.04688 10.999 3.04688 10.8125V2.375C3.04688 2.18852 3.12095 2.00968 3.25282 1.87782C3.38468 1.74595 3.56352 1.67188 3.75 1.67188C3.93648 1.67188 4.11532 1.74595 4.24718 1.87782C4.37905 2.00968 4.45312 2.18852 4.45312 2.375V10.1094H10.4883L8.87578 8.49746C8.81038 8.43206 8.7585 8.35441 8.7231 8.26895C8.6877 8.1835 8.66948 8.09191 8.66948 7.99941C8.66948 7.90692 8.6877 7.81533 8.7231 7.72987C8.7585 7.64442 8.81038 7.56677 8.87578 7.50137C8.94119 7.43596 9.01883 7.38408 9.10429 7.34868C9.18974 7.31329 9.28133 7.29507 9.37383 7.29507C9.46632 7.29507 9.55791 7.31329 9.64337 7.34868C9.72882 7.38408 9.80647 7.43596 9.87187 7.50137L12.6844 10.3139C12.75 10.3792 12.802 10.4567 12.8376 10.5422C12.8731 10.6276 12.8914 10.7193 12.8915 10.8118C12.8915 10.9043 12.8733 10.996 12.8379 11.0815C12.8024 11.1669 12.7505 11.2446 12.685 11.31Z"
                fill="#999999" />
            </svg>