<svg width="291" height="104" viewBox="0 0 291 104" fill="none" xmlns="http://www.w3.org/2000/svg">
<path fill-rule="evenodd" clip-rule="evenodd" d="M146.225 0.587078C153.63 0.554952 159.975 5.23741 162.267 11.9805C162.609 13.0236 162.866 14.0927 163.017 15.2188L168.242 54.2231L169.007 59.1745L152.713 59.2149H152.044L147.677 26.6174C147.544 25.62 146.703 24.896 145.689 24.8925C144.676 24.896 143.836 25.62 143.702 26.6174L139.335 59.2149H138.666L122.372 59.1745L123.137 54.2231L128.362 15.2188C128.513 14.0927 128.77 13.0236 129.112 11.9805C131.405 5.23741 137.749 0.554952 145.154 0.587078C145.333 0.587456 145.512 0.590669 145.689 0.596905C145.868 0.590669 146.046 0.587456 146.225 0.587078Z" fill="#E6E6E6"/>
<path d="M10.7208 103.761H20.6438V82.7798H30.5199V75.7149H0.844727V82.7798H10.7208V103.761ZM32.737 75.7149V103.761H42.6665V94.6524H45.1973V96.3487C45.1973 100.415 48.5159 103.747 52.5893 103.761H64.6624V96.6223H57.4239C56.1751 96.6223 55.1201 95.8611 55.1201 94.9663V94.5991C68.2683 93.4906 67.8342 75.7149 53.8112 75.7149H32.737ZM42.6665 82.8533H52.3022C55.6142 82.8533 55.6142 87.5142 52.3022 87.5142H42.6665V82.8533ZM90.9785 75.7149H75.086L65.9511 103.761H76.2478L77.5767 100.315H88.4878L89.8101 103.761H100.107L90.9785 75.7149ZM80.3212 93.1767L83.0323 81.8315L85.7367 93.1767H80.3212ZM121.942 75.7149V88.3555L112.02 80.496L105.983 75.7149H102.09V103.761H112.02V91.1201L121.942 98.9796L127.979 103.761H131.872V75.7149H121.942ZM161.901 75.7149H142.997C142.469 75.7149 141.948 75.7684 141.448 75.8686C138.156 76.5096 135.578 79.1739 135.131 82.6262C134.93 84.1487 135.177 85.6311 135.772 86.9399C137.561 90.8929 141.227 91.327 145.067 92.342L151.558 94.0583C152.018 94.1785 152.312 94.6124 152.245 95.0799C152.185 95.554 151.791 95.9012 151.317 95.9012H135.745V103.761H155.671C156.205 103.761 156.719 103.707 157.227 103.614C160.512 102.966 163.09 100.302 163.537 96.8495C163.737 95.3269 163.49 93.8446 162.903 92.5357C162.783 92.2753 161.901 90.6259 161.901 90.8529C159.698 87.975 156.305 87.3205 152.579 86.339L146.089 84.6227C145.628 84.5025 145.334 84.0618 145.401 83.5945C145.461 83.1269 145.855 82.7798 146.329 82.7798H161.901V75.7149ZM166.155 96.028C166.155 96.6291 166.148 97.21 166.155 97.7775V96.3487C166.155 100.422 169.493 103.761 173.573 103.761H194.802V96.6223H178.388C177.139 96.6223 176.084 95.8611 176.084 94.9663V84.5093C176.084 83.6145 177.139 82.8533 178.388 82.8533H194.802V75.7149H173.573C169.493 75.7149 166.155 79.0538 166.155 83.1269V81.6981C166.148 82.259 166.155 82.8465 166.155 83.4475V96.028ZM197.927 103.761H223.649V96.6223H207.856V93.3103H220.844V86.1653H207.856V82.8533H223.649V75.7149H197.927V103.761ZM246.786 75.7149V88.3555L236.864 80.496L230.827 75.7149H226.934V103.761H236.864V91.1201L246.786 98.9796L252.823 103.761H256.716V75.7149H246.786ZM260.749 75.7149V103.761H283.139C287.206 103.747 290.531 100.415 290.531 96.3487C290.531 106.472 290.531 84.8565 290.531 83.4475C290.531 82.8465 290.538 82.2656 290.531 81.6981V83.1269C290.531 79.0538 287.192 75.7149 283.119 75.7149H260.749ZM270.679 96.6223V82.8533H278.298C279.547 82.8533 280.602 83.6145 280.602 84.5093V94.9663C280.602 95.8611 279.547 96.6223 278.298 96.6223H270.679Z" fill="#E6E6E6"/>
</svg>
