{
  "asset": {
    "version": "2.0",
    "generator": "THREE.GLTFExporter"
  },
  "scenes": [
    {
      "nodes": [
        0
      ]
    }
  ],
  "scene": 0,
  "nodes": [
    {
      "children": [
        12
      ],
      "matrix": [
        0.01,
        0,
        0,
        0,
        0,
        0.01,
        0,
        0,
        0,
        0,
        0.01,
        0,
        0,
        0,
        0,
        1
      ]
    },
    {
      "name": "Cube_Bag_0",
      "mesh": 0
    },
    {
      "matrix": [
        100,
        0,
        0,
        0,
        0,
        -0.000016292067894774224,
        -99.99999999999869,
        0,
        0,
        99.99999999999869,
        -0.000016292067894774224,
        0,
        0,
        0,
        0,
        1
      ],
      "name": "Cube",
      "children": [
        1
      ]
    },
    {
      "name": "BezierCurve001_Rope_0",
      "mesh": 1
    },
    {
      "matrix": [
        20.06338882446289,
        0,
        0,
        0,
        0,
        -0.0000032687409292740375,
        -20.063388824462624,
        0,
        0,
        20.063388824462624,
        -0.0000032687409292740375,
        0,
        -7.60568904876709,
        133.50430297851562,
        3.2366092205047607,
        1
      ],
      "name": "BezierCurve001",
      "children": [
        3
      ]
    },
    {
      "name": "RootNode",
      "children": [
        2,
        4
      ]
    },
    {
      "matrix": [
        1,
        0,
        0,
        0,
        0,
        2.220446049250313e-16,
        1,
        0,
        0,
        -1,
        2.220446049250313e-16,
        0,
        0,
        0,
        0,
        1
      ],
      "name": "6895b918d790411e936254af6d26a001fbx",
      "children": [
        5
      ]
    },
    {
      "matrix": [
        1,
        0,
        0,
        0,
        0,
        2.220446049250313e-16,
        -1,
        0,
        0,
        1,
        2.220446049250313e-16,
        0,
        0,
        0,
        0,
        1
      ],
      "name": "Sketchfab_model",
      "children": [
        6
      ]
    },
    {
      "name": "money_bag_-__anil",
      "children": [
        7
      ]
    },
    {
      "matrix": [
        0.29411848563471676,
        0.5174650489796805,
        -0.803569685523538,
        0,
        0.8693813154105089,
        -0.4941418100253137,
        0,
        0,
        -0.3970773788860732,
        -0.6986084702244625,
        -0.5952106858143612,
        0,
        0,
        0,
        0,
        1
      ],
      "name": "Directional Light",
      "extensions": {
        "KHR_lights_punctual": {
          "light": 0
        }
      }
    },
    {
      "matrix": [
        -1,
        0,
        -1.2256862191861724e-16,
        0,
        -7.838121954275967e-33,
        1,
        6.394884621840899e-17,
        0,
        1.2256862191861724e-16,
        6.394884621840899e-17,
        -1,
        0,
        -11.58501421197733,
        55.597402884217594,
        -1029.9168975069265,
        1
      ],
      "camera": 0
    },
    {
      "matrix": [
        1,
        0,
        0,
        0,
        0,
        1,
        0,
        0,
        0,
        0,
        1,
        0,
        0,
        1,
        0,
        1
      ],
      "name": "Default Ambient Light"
    },
    {
      "name": "Scene",
      "children": [
        8,
        9,
        10,
        11
      ]
    }
  ],
  "bufferViews": [
    {
      "buffer": 0,
      "byteOffset": 0,
      "byteLength": 17160,
      "target": 34962,
      "byteStride": 12
    },
    {
      "buffer": 0,
      "byteOffset": 17160,
      "byteLength": 17160,
      "target": 34962,
      "byteStride": 12
    },
    {
      "buffer": 0,
      "byteOffset": 34320,
      "byteLength": 11440,
      "target": 34962,
      "byteStride": 8
    },
    {
      "buffer": 0,
      "byteOffset": 45760,
      "byteLength": 26112,
      "target": 34963
    },
    {
      "buffer": 0,
      "byteOffset": 71872,
      "byteLength": 13260,
      "target": 34962,
      "byteStride": 12
    },
    {
      "buffer": 0,
      "byteOffset": 85132,
      "byteLength": 13260,
      "target": 34962,
      "byteStride": 12
    },
    {
      "buffer": 0,
      "byteOffset": 98392,
      "byteLength": 8840,
      "target": 34962,
      "byteStride": 8
    },
    {
      "buffer": 0,
      "byteOffset": 107232,
      "byteLength": 24192,
      "target": 34963
    }
  ],
  "buffers": [
    {
      "byteLength": 131424,
      "uri": "data:application/octet-stream;base64,"
    }
  ],
  "accessors": [
    {
      "bufferView": 0,
      "componentType": 5126,
      "count": 1430,
      "max": [
        0.9999194145202637,
        0.9999110698699951,
        0.9985058307647705
      ],
      "min": [
        -0.9999110698699951,
        -0.9999110698699951,
        -1
      ],
      "type": "VEC3"
    },
    {
      "bufferView": 1,
      "componentType": 5126,
      "count": 1430,
      "max": [
        0.8109363913536072,
        0.8109363913536072,
        2.064504861831665
      ],
      "min": [
        -0.8109363317489624,
        -0.8109363913536072,
        -0.39410266280174255
      ],
      "type": "VEC3"
    },
    {
      "bufferView": 2,
      "componentType": 5126,
      "count": 1430,
      "max": [
        0.8750002384185791,
        1.000000238418579
      ],
      "min": [
        0.1250000298023224,
        0
      ],
      "type": "VEC2"
    },
    {
      "bufferView": 3,
      "componentType": 5125,
      "count": 6528,
      "max": [
        1429
      ],
      "min": [
        0
      ],
      "type": "SCALAR"
    },
    {
      "bufferView": 4,
      "componentType": 5126,
      "count": 1105,
      "max": [
        0.9956730604171753,
        0.9785935282707214,
        0.9932462573051453
      ],
      "min": [
        -0.9959036111831665,
        -0.979899525642395,
        -0.9958853721618652
      ],
      "type": "VEC3"
    },
    {
      "bufferView": 5,
      "componentType": 5126,
      "count": 1105,
      "max": [
        2.069753646850586,
        3.2076361179351807,
        0.2792401909828186
      ],
      "min": [
        -1.7668179273605347,
        -1.1076799631118774,
        -2.9062650203704834
      ],
      "type": "VEC3"
    },
    {
      "bufferView": 6,
      "componentType": 5126,
      "count": 1105,
      "max": [
        1,
        1
      ],
      "min": [
        0,
        0
      ],
      "type": "VEC2"
    },
    {
      "bufferView": 7,
      "componentType": 5125,
      "count": 6048,
      "max": [
        1104
      ],
      "min": [
        0
      ],
      "type": "SCALAR"
    }
  ],
  "meshes": [
    {
      "primitives": [
        {
          "mode": 4,
          "attributes": {
            "NORMAL": 0,
            "POSITION": 1,
            "TEXCOORD_0": 2
          },
          "extras": {
            "parameters": {
              "width": 1.6218727231025696,
              "height": 1.6218727827072144,
              "depth": 2.4586075246334076,
              "subdivisions": 0
            },
            "type": "NonParametricGeometry"
          },
          "indices": 3
        }
      ]
    },
    {
      "primitives": [
        {
          "mode": 4,
          "attributes": {
            "NORMAL": 4,
            "POSITION": 5,
            "TEXCOORD_0": 6
          },
          "extras": {
            "parameters": {
              "width": 3.8365715742111206,
              "height": 4.315316081047058,
              "depth": 3.185505211353302,
              "subdivisions": 0
            },
            "type": "NonParametricGeometry"
          },
          "indices": 7
        }
      ]
    }
  ],
  "extensions": {
    "KHR_lights_punctual": {
      "lights": [
        {
          "name": "Directional Light",
          "color": [
            1,
            1,
            1
          ],
          "intensity": 1,
          "type": "directional"
        }
      ]
    }
  },
  "cameras": [
    {
      "type": "orthographic",
      "orthographic": {
        "xmag": 3.168912014292713,
        "ymag": 1.7142933743986273,
        "zfar": 100000,
        "znear": 0
      }
    }
  ],
  "extensionsUsed": [
    "KHR_lights_punctual"
  ]
}