            <svg class="logo" width="128" height="160" viewBox="0 0 128 160" fill="none"
              xmlns="http://www.w3.org/2000/svg">
              <path
                d="M65.0992 1.00045L65.102 1.00044C84.8719 0.914854 101.806 13.4121 107.929 31.4094C108.843 34.2037 109.53 37.06 109.932 40.0643L124.193 146.51L124.194 146.52L124.195 146.53L126.105 158.893L82.8037 159H82.8012H81.8517L70.0513 70.9063L70.0513 70.9061C69.6181 67.6773 66.8919 65.3427 63.6389 65.3317L63.6321 65.3317C60.3792 65.3427 57.6528 67.6773 57.22 70.9062L57.22 70.9063L45.4196 159H44.4701H44.4676L1.16587 158.893L3.07545 146.53L3.07698 146.52L3.07832 146.51L17.3389 40.0643L17.3389 40.0642C17.741 37.06 18.4282 34.2039 19.3419 31.4099C25.4643 13.4123 42.3992 0.914854 62.1693 1.00044L62.1722 1.00045C62.6506 1.00117 63.1267 1.00955 63.6002 1.02625L63.6355 1.0275L63.6707 1.02625C64.1443 1.00955 64.6203 1.00117 65.0992 1.00045Z"
                stroke="#E6E6E6" stroke-width="2" />
            </svg>