<svg width="188" height="20" viewBox="0 0 188 20" fill="none" xmlns="http://www.w3.org/2000/svg">
<path fill-rule="evenodd" clip-rule="evenodd" d="M8.13713 5.60446e-05C10.663 -0.0109032 12.8275 1.58644 13.6097 3.88672C13.726 4.24258 13.8139 4.60727 13.8653 4.99142L15.6479 18.2971L15.9088 19.9862L10.3504 20H10.122L8.63242 8.87989C8.58684 8.53964 8.30009 8.29267 7.95436 8.29144C7.60869 8.29267 7.32195 8.53964 7.27631 8.87989L5.78675 20H5.55841L0 19.9862L0.260899 18.2971L2.04345 4.99142C2.09483 4.60727 2.1827 4.24258 2.29913 3.88672C3.0813 1.58644 5.24575 -0.0109032 7.77166 5.60446e-05C7.83278 0.000184977 7.8937 0.00128103 7.95436 0.00340842C8.01509 0.00128103 8.07601 0.000184977 8.13713 5.60446e-05Z" fill="#E6E6E6"/>
<path d="M27.2665 18.0131H32.9368V6.02399H38.5803V1.98691H21.623V6.02399H27.2665V18.0131ZM39.8472 1.98691V18.0131H45.5212V12.8083H46.9674V13.7776C46.9674 16.1014 48.8637 18.0054 51.1914 18.0131H58.0903V13.934H53.954C53.2404 13.934 52.6375 13.499 52.6375 12.9877V12.7779C60.1508 12.1444 59.9028 1.98691 51.8896 1.98691H39.8472ZM45.5212 6.06599H51.0273C52.9199 6.06599 52.9199 8.72938 51.0273 8.72938H45.5212V6.06599ZM73.1281 1.98691H64.0466L58.8267 18.0131H64.7105L65.4699 16.0442H71.7048L72.4604 18.0131H78.3443L73.1281 1.98691ZM67.0382 11.9651L68.5874 5.48211L70.1327 11.9651H67.0382ZM90.8218 1.98691V9.21013L85.1516 4.71897L81.7021 1.98691H79.4776V18.0131H85.1516V10.7899L90.8218 15.281L94.2712 18.0131H96.4958V1.98691H90.8218ZM113.655 1.98691H102.853C102.551 1.98691 102.254 2.01748 101.968 2.07471C100.086 2.441 98.6135 3.9635 98.3579 5.9362C98.2435 6.80625 98.3846 7.65329 98.7242 8.4012C99.7469 10.6601 101.842 10.9081 104.036 11.4881L107.745 12.4688C108.008 12.5375 108.176 12.7855 108.138 13.0526C108.103 13.3236 107.878 13.5219 107.607 13.5219H98.709V18.0131H110.095C110.4 18.0131 110.694 17.9825 110.984 17.9292C112.862 17.559 114.334 16.0365 114.59 14.0638C114.705 13.1938 114.563 12.3467 114.228 11.5988C114.159 11.45 113.655 10.5075 113.655 10.6372C112.396 8.99265 110.458 8.61869 108.328 8.05781L104.62 7.07707C104.356 7.00839 104.188 6.75656 104.227 6.48951C104.261 6.22236 104.486 6.02399 104.757 6.02399H113.655V1.98691ZM116.086 13.5944C116.086 13.9379 116.082 14.2698 116.086 14.5941V13.7776C116.086 16.1052 117.994 18.0131 120.325 18.0131H132.456V13.934H123.076C122.363 13.934 121.76 13.499 121.76 12.9877V7.01228C121.76 6.50096 122.363 6.06599 123.076 6.06599H132.456V1.98691H120.325C117.994 1.98691 116.086 3.89482 116.086 6.22236V5.40587C116.082 5.72638 116.086 6.06211 116.086 6.40551V13.5944ZM134.241 18.0131H148.94V13.934H139.915V12.0414H147.337V7.95856H139.915V6.06599H148.94V1.98691H134.241V18.0131ZM162.161 1.98691V9.21013L156.491 4.71897L153.041 1.98691H150.817V18.0131H156.491V10.7899L162.161 15.281L165.611 18.0131H167.835V1.98691H162.161ZM170.14 1.98691V18.0131H182.934C185.258 18.0054 187.158 16.1014 187.158 13.7776C187.158 19.5623 187.158 7.21066 187.158 6.40551C187.158 6.06211 187.162 5.73016 187.158 5.40587V6.22236C187.158 3.89482 185.25 1.98691 182.923 1.98691H170.14ZM175.814 13.934V6.06599H180.168C180.881 6.06599 181.484 6.50096 181.484 7.01228V12.9877C181.484 13.499 180.881 13.934 180.168 13.934H175.814Z" fill="#E6E6E6"/>
</svg>
